<svg width="512" height="512" viewBox="0 0 512 512" fill="none" xmlns="http://www.w3.org/2000/svg" role="img" aria-labelledby="title desc"><title id="title">BAGNON STREET mark</title><desc id="desc">Circular BAGNON STREET collection mark with central face symbol.</desc><rect width="512" height="512" fill="#F4F1EA"/><circle cx="256" cy="256" r="214" fill="#12120F"/><circle cx="256" cy="256" r="184" stroke="#F4F1EA" stroke-width="13"/><circle cx="256" cy="256" r="128" fill="#F4F1EA"/><path d="M256 144c-46 0-75 43-75 95 0 64 29 117 75 117s75-53 75-117c0-52-29-95-75-95Z" fill="#12120F"/><path d="M205 230c20-16 38-17 52 2-18 17-35 18-52-2ZM307 230c-20-16-38-17-52 2 18 17 35 18 52-2Z" fill="#F4F1EA"/><ellipse cx="256" cy="291" rx="22" ry="28" fill="#F4F1EA"/><text x="256" y="104" text-anchor="middle" fill="#F4F1EA" font-size="43" font-family="Georgia, serif" font-weight="700" letter-spacing="4">BAGNON STREET</text><text x="256" y="438" text-anchor="middle" fill="#F4F1EA" font-size="39" font-family="Georgia, serif" font-weight="700" letter-spacing="4">COLLECTION</text></svg>