<svg width="900" height="640" viewBox="0 0 900 640" fill="none" xmlns="http://www.w3.org/2000/svg" role="img" aria-labelledby="title desc"><title id="title">BAGNON STREET collection patch</title><desc id="desc">Oval BAGNON STREET collection patch inspired by the provided reference.</desc><rect width="900" height="640" fill="#F4F1EA"/><ellipse cx="450" cy="320" rx="360" ry="236" fill="#252541"/><ellipse cx="450" cy="320" rx="306" ry="166" stroke="#F4F1EA" stroke-width="16"/><path d="M176 320h548M228 252c112 58 333 58 444 0M228 388c112-58 333-58 444 0" stroke="#F4F1EA" stroke-width="15" stroke-linecap="round"/><circle cx="450" cy="320" r="112" fill="#F4F1EA"/><path d="M450 217c-46 0-76 40-76 93 0 63 30 112 76 112s76-49 76-112c0-53-30-93-76-93Z" fill="#252541"/><path d="M398 300c20-16 39-17 55 2-19 16-38 17-55-2ZM502 300c-20-16-39-17-55 2 19 16 38 17 55-2Z" fill="#F4F1EA"/><ellipse cx="450" cy="358" rx="20" ry="27" fill="#F4F1EA"/><text x="450" y="171" text-anchor="middle" fill="#F4F1EA" font-size="66" font-family="Georgia, serif" font-weight="700" letter-spacing="5">BAGNON STREET</text><text x="450" y="510" text-anchor="middle" fill="#F4F1EA" font-size="62" font-family="Georgia, serif" font-weight="700" letter-spacing="5">COLLECTION</text></svg>